<?xml version="1.0" encoding="utf-8"?>
<svg id="Capa_1" enable-background="new 0 0 512 512" viewBox="0 0 512 512" xmlns="http://www.w3.org/2000/svg">
  <g>
    <circle cx="256" cy="256" r="256" style="fill: rgb(222, 222, 222);"/>
    <g fill="#fff">
      <path d="m387.151 113h-137.689c0 34.32 27.782 62.103 62.102 62.103h25.331v24.515c0 34.32 27.783 62.103 62.103 62.103v-136.872c0-6.538-5.311-11.849-11.847-11.849z" style="fill: rgb(46, 155, 223);"/>
      <path d="m318.921 181.64h-137.689c0 34.32 27.783 62.102 62.103 62.102h25.331v24.515c0 34.32 27.784 62.102 62.104 62.102v-136.87c-.001-6.538-5.313-11.849-11.849-11.849z" style="fill: rgb(46, 155, 223);"/>
      <path d="m250.691 250.28h-137.689c0 34.32 27.783 62.103 62.103 62.103h25.331v24.515c0 34.32 27.784 62.103 62.104 62.103v-136.872c-.001-6.538-5.312-11.849-11.849-11.849z" style="fill: rgb(46, 155, 223);"/>
    </g>
  </g>
</svg>