<?xml version="1.0" encoding="utf-8"?>
<svg height="800px" width="800px" version="1.1" id="Layer_1" viewBox="0 0 512 512" xmlns="http://www.w3.org/2000/svg">
  <circle style="fill: rgb(222, 222, 222);" cx="256" cy="256" r="256"/>
  <path style="fill: rgb(242, 242, 242);" d="M 348.604 126.934 L 326.375 105.209 L 304.146 126.934 L 281.848 105.209 L 259.619 126.934 L 237.39 105.209 L 215.161 126.934 L 192.864 105.209 L 170.634 126.934 L 148.405 105.209 L 126.108 126.934 L 103.879 105.209 L 103.879 428.626 C 103.879 436.399 110.337 442.711 118.29 442.711 L 308.02 442.711 L 370.833 381.323 L 370.833 105.209 L 348.604 126.934 Z"/>
  <path style="fill: rgb(200, 200, 200);" d="M 323.951 379.805 C 315.997 379.805 309.539 386.116 309.539 393.89 L 309.539 441.193 L 372.352 379.805 L 323.951 379.805 Z"/>
  <g transform="matrix(0.679792, 0, 0, 0.664374, 104.581871, 128.482208)" style="">
    <rect x="29.4" y="101" style="fill:#FFFFFF;" width="74.6" height="74.6"/>
    <rect x="29.4" y="209.3" style="fill:#FFFFFF;" width="74.6" height="74.6"/>
    <rect x="29.4" y="317.5" style="fill:#FFFFFF;" width="74.6" height="74.6"/>
  </g>
  <polygon style="fill: rgb(254, 197, 0);" points="145.256 234.276 133.36 222.649 138.526 217.6 145.256 224.177 164.426 205.442 169.593 210.491"/>
  <polygon style="fill: rgb(46, 155, 223);" points="145.256 307.746 133.36 296.119 138.526 291.07 145.256 297.581 164.426 278.912 169.593 283.961"/>
  <rect x="417.457" y="154.843" style="fill: rgb(46, 155, 223);" width="13.868" height="228.877"/>
  <rect x="403.589" y="154.843" style="fill: rgb(54, 126, 203);" width="13.868" height="228.877"/>
  <rect x="389.721" y="154.843" style="fill: rgb(34, 75, 141);" width="13.868" height="228.877"/>
  <polygon style="fill: rgb(254, 197, 0);" points="431.393 154.843 389.721 154.843 401.346 129.265 410.523 109.068 419.768 129.265"/>
  <rect x="389.721" y="383.72" style="fill: rgb(64, 89, 107);" width="41.671" height="17.872"/>
  <path style="fill: rgb(254, 197, 0);" d="M 389.721 401.592 L 389.721 418.002 C 389.721 429.163 398.967 438.265 410.455 438.265 L 410.659 438.265 C 422.079 438.265 431.393 429.23 431.393 418.002 L 431.393 401.592 L 389.721 401.592 Z"/>
  <polygon style="fill: rgb(51, 74, 94);" points="419.768 129.265 401.346 129.265 410.523 109.068"/>
  <title>Fish-bone</title>
  <desc>Created with Sketch.</desc>
  <g transform="matrix(1.042269, 0, 0.002077, 0.993739, -22.484777, 75.119247)" style="">
    <rect x="198.4" y="123.2" style="fill: rgb(34, 75, 141);" width="155.6" height="9.2"/>
    <rect x="198.4" y="147.2" style="fill: rgb(34, 75, 141);" width="155.6" height="9.2"/>
    <rect x="198.4" y="170.8" style="fill: rgb(34, 75, 141);" width="155.6" height="9.2"/>
    <rect x="198.4" y="194.8" style="fill: rgb(34, 75, 141);" width="155.6" height="9.2"/>
  </g>
  <g transform="matrix(1.042269, 0, 0.002077, 0.993739, -22.095919, 169.819565)" style="">
    <rect x="198.4" y="123.2" style="fill: rgb(34, 75, 141);" width="155.6" height="9.2"/>
    <rect x="198.4" y="147.2" style="fill: rgb(34, 75, 141);" width="155.6" height="9.2"/>
    <rect x="198.4" y="170.8" style="fill: rgb(34, 75, 141);" width="155.6" height="9.2"/>
    <rect x="198.4" y="194.8" style="fill: rgb(34, 75, 141);" width="155.6" height="9.2"/>
  </g>
</svg>