<?xml version="1.0" encoding="utf-8"?>
<svg version="1.1" id="Layer_1" viewBox="0 0 508 508" xmlns="http://www.w3.org/2000/svg">
  <circle style="fill: rgb(222, 222, 222);" cx="254" cy="254" r="254"/>
  <path style="fill: rgb(46, 155, 223);" d="M 407.236 156.479 L 103.775 156.479 L 86.916 156.479 L 86.916 386.866 L 221.787 386.866 C 221.787 405.954 236.882 421.424 255.505 421.424 C 274.129 421.424 289.223 405.954 289.223 386.866 L 424.095 386.866 L 424.095 156.479 L 407.236 156.479 Z"/>
  <polygon style="fill: rgb(255, 255, 255);" points="300.463 133.44 210.548 133.44 109.394 133.44 109.394 363.827 401.617 363.827 401.617 133.44"/>
  <rect x="255.505" y="133.44" style="fill: rgb(222, 222, 222);" width="146.111" height="230.388"/>
  <path style="fill: rgb(112, 112, 112);" d="M 300.463 133.44 L 300.463 93.122 L 277.984 81.603 L 277.984 110.401 L 266.745 121.92 L 244.266 121.92 L 233.027 110.401 L 233.027 81.603 L 210.548 93.122 L 210.548 133.44 L 233.027 156.479 L 233.027 277.588 C 229.543 282.385 227.407 288.266 227.407 294.711 C 227.407 310.614 239.99 323.51 255.505 323.51 C 271.021 323.51 283.604 310.614 283.604 294.711 C 283.604 288.272 281.468 282.385 277.984 277.588 L 277.984 156.479 L 300.463 133.44 Z"/>
  <g transform="matrix(0.702458, 0, 0, 0.719961, 81.29631, 71.182922)" style="">
    <rect x="72" y="118.472" style="fill: rgb(254, 197, 0);" width="112" height="96"/>
    <circle style="fill: rgb(254, 197, 0);" cx="368" cy="326.472" r="48"/>
  </g>
  <path d="M 407.236 150.719 L 407.236 127.68 L 306.082 127.68 L 306.082 89.563 L 272.364 72.283 L 272.364 108.017 L 264.418 116.161 L 246.593 116.161 L 238.646 108.017 L 238.646 72.283 L 204.929 89.563 L 204.929 127.68 L 103.775 127.68 L 103.775 150.719 L 81.296 150.719 L 81.296 392.626 L 216.567 392.626 C 219.298 412.14 235.719 427.184 255.505 427.184 C 275.292 427.184 291.707 412.14 294.444 392.626 L 429.715 392.626 L 429.715 150.719 L 407.236 150.719 Z M 216.168 96.682 L 227.407 90.922 L 227.407 112.786 L 241.94 127.68 L 269.071 127.68 L 283.604 112.786 L 283.604 90.922 L 294.843 96.682 L 294.843 131.055 L 272.364 154.094 L 272.364 279.494 L 273.477 281.026 C 276.427 285.087 277.984 289.815 277.984 294.711 C 277.984 307.417 267.902 317.75 255.505 317.75 C 243.108 317.75 233.027 307.417 233.027 294.711 C 233.027 289.815 234.583 285.087 237.534 281.026 L 238.646 279.494 L 238.646 154.094 L 216.168 131.055 L 216.168 96.682 Z M 418.476 381.106 L 283.604 381.106 L 283.604 386.866 C 283.604 402.746 270.999 415.665 255.505 415.665 C 240.012 415.665 227.407 402.746 227.407 386.866 L 227.407 381.106 L 92.535 381.106 L 92.535 162.238 L 103.775 162.238 L 103.775 369.587 L 407.236 369.587 L 407.236 185.277 L 395.997 185.277 L 395.997 358.068 L 115.014 358.068 L 115.014 139.2 L 208.222 139.2 L 227.407 158.863 L 227.407 275.773 C 223.726 281.464 221.787 287.972 221.787 294.711 C 221.787 313.77 236.91 329.269 255.505 329.269 C 274.101 329.269 289.223 313.77 289.223 294.711 C 289.223 287.972 287.285 281.464 283.604 275.773 L 283.604 158.863 L 302.789 139.2 L 395.997 139.2 L 395.997 173.758 L 407.236 173.758 L 407.236 162.238 L 418.476 162.238 L 418.476 381.106 Z" style="stroke-width: 0px; stroke-miterlimit: 1; stroke-dashoffset: 1px; fill-rule: nonzero; fill: rgb(51, 74, 94);"/>
  <path d="M 126.253 231.355 L 216.168 231.355 L 216.168 150.719 L 126.253 150.719 L 126.253 231.355 Z M 137.493 162.238 L 204.929 162.238 L 204.929 219.835 L 137.493 219.835 L 137.493 162.238 Z" style="fill: rgb(51, 74, 94);"/>
  <rect x="126.253" y="242.874" width="89.915" height="11.519" style="fill: rgb(51, 74, 94);"/>
  <rect x="126.253" y="265.913" width="89.915" height="11.519" style="fill: rgb(51, 74, 94);"/>
  <rect x="126.253" y="288.951" width="89.915" height="11.519" style="fill: rgb(51, 74, 94);"/>
  <rect x="126.253" y="311.99" width="89.915" height="11.519" style="fill: rgb(51, 74, 94);"/>
  <rect x="126.253" y="335.029" width="67.436" height="11.519" style="fill: rgb(51, 74, 94);"/>
  <rect x="249.886" y="162.238" width="11.239" height="109.434" style="fill: rgb(34, 75, 141);"/>
  <rect x="294.843" y="150.719" width="89.915" height="11.519" style="fill: rgb(51, 74, 94);"/>
  <rect x="294.843" y="173.758" width="89.915" height="11.519" style="fill: rgb(51, 74, 94);"/>
  <rect x="294.843" y="196.796" width="89.915" height="11.519" style="fill: rgb(51, 74, 94);"/>
  <rect x="294.843" y="219.835" width="89.915" height="11.519" style="fill: rgb(51, 74, 94);"/>
  <rect x="294.843" y="242.874" width="67.436" height="11.519" style="fill: rgb(51, 74, 94);"/>
  <path d="M 339.8 265.913 C 318.114 265.913 300.463 284.004 300.463 306.231 C 300.463 328.457 318.114 346.548 339.8 346.548 C 361.487 346.548 379.138 328.457 379.138 306.231 C 379.138 284.004 361.487 265.913 339.8 265.913 Z M 339.8 335.029 C 324.307 335.029 311.702 322.11 311.702 306.231 C 311.702 290.351 324.307 277.432 339.8 277.432 C 355.294 277.432 367.899 290.351 367.899 306.231 C 367.899 322.11 355.294 335.029 339.8 335.029 Z" style="fill: rgb(51, 74, 94);"/>
  <rect x="373.518" y="242.874" width="11.239" height="11.519" style="fill: rgb(51, 74, 94);"/>
  <rect x="204.929" y="335.029" width="11.239" height="11.519" style="fill: rgb(51, 74, 94);"/>
  <rect x="249.886" y="288.951" width="11.239" height="11.519" style="fill: rgb(34, 75, 141);"/>
</svg>