<?xml version="1.0" encoding="utf-8"?>
<svg version="1.1" id="Layer_1" viewBox="0 0 512 512" xmlns="http://www.w3.org/2000/svg">
  <circle style="fill: rgb(222, 222, 222);" cx="256" cy="256" r="256"/>
  <path d="M 64 354.311 L 64 121.807 C 64 117.679 67.528 114.303 71.832 114.303 L 440.16 114.303 C 444.464 114.303 447.992 117.679 447.992 121.807 L 447.992 354.303 L 64 354.303 L 64 354.311 Z" style=""/>
  <path style="fill:#636363;" d="M448,353.176v32c0,4.4-3.528,8-7.832,8H71.832c-4.304,0-7.832-3.6-7.832-8v-32H448L448,353.176z"/>
  <polygon style="fill:#C9C9C9;" points="200,449.176 312,449.176 304,393.176 208,393.176 "/>
  <polygon style="fill:#AAAAAA;" points="304,393.176 208,393.176 203.016,428.08 305.864,406.224 "/>
  <rect x="172" y="449.2" style="fill:#636363;" width="168" height="8"/>
  <polygon style="fill:#939393;" points="208,393.176 304,393.176 304.544,396.96 205.512,410.624 "/>
  <g transform="matrix(1, 0, 0, 1, 202.644852, 0.383471)">
    <g fill="#fff" transform="matrix(0.537033, 0, 0, 0.49761, -65.647331, 92.719841)" style="">
      <g id="_x31_0_Bug" transform="matrix(0.898788, 0, 0, 0.905768, -6.126816, 52.896908)" style="">
        <g>
          <circle cx="255.999" cy="210.566" r="33.755" style="fill: rgb(254, 197, 0);"/>
          <circle cx="255.999" cy="277.657" r="63.613" style="fill: rgb(254, 197, 0);"/>
          <path d="m319.586 277.673c0 35.114-28.473 63.587-63.587 63.587-4.303 0-8.499-.425-12.537-1.222 29.111-5.844 51.05-31.555 51.05-62.366s-21.939-56.575-51.05-62.419c4.037-.797 8.234-1.222 12.537-1.222 35.114.002 63.587 28.528 63.587 63.642z" opacity=".18" style="fill: rgb(54, 126, 203);"/>
          <path d="m276.845 27.171v53.584c0 11.513-9.333 20.845-20.845 20.845-11.513 0-20.845-9.333-20.845-20.845v-53.584c0-11.513 9.333-20.845 20.845-20.845 11.512-.001 20.845 9.332 20.845 20.845z" style="fill: rgb(254, 197, 0);"/>
          <path d="m276.845 431.244v53.584c0 11.513-9.333 20.845-20.845 20.845-11.513 0-20.845-9.333-20.845-20.845v-53.584c0-11.513 9.333-20.845 20.845-20.845 11.512 0 20.845 9.333 20.845 20.845z" style="fill: rgb(254, 197, 0);"/>
          <path d="m484.828 276.845h-53.584c-11.513 0-20.845-9.333-20.845-20.845 0-11.513 9.333-20.845 20.845-20.845h53.584c11.513 0 20.845 9.333 20.845 20.845.001 11.512-9.332 20.845-20.845 20.845z" style="fill: rgb(254, 197, 0);"/>
          <path d="m80.754 276.845h-53.584c-11.513 0-20.845-9.333-20.845-20.845 0-11.513 9.333-20.845 20.845-20.845h53.584c11.513 0 20.845 9.333 20.845 20.845.001 11.512-9.332 20.845-20.845 20.845z" style="fill: rgb(254, 197, 0);"/>
          <g fill="#2b3c65">
            <path d="m53.632 207.51c-.42 1.769-.814 3.543-1.188 5.33-.602 2.871 1.24 5.686 4.114 6.288 2.865.593 5.68-1.233 6.282-4.114.353-1.689.726-3.369 1.126-5.04.68-2.853-1.079-5.719-3.937-6.399-2.812-.669-5.712 1.082-6.397 3.935z" style="fill: rgb(34, 75, 141);"/>
            <path d="m138.363 90.712c-1.759-2.345-5.094-2.814-7.439-1.058-2.843 2.137-5.623 4.345-8.347 6.622-2.251 1.883-2.547 5.234-.664 7.483 1.863 2.232 5.206 2.563 7.481.667 2.578-2.158 5.214-4.251 7.911-6.275 2.345-1.764 2.817-5.092 1.058-7.439z" style="fill: rgb(34, 75, 141);"/>
            <path d="m96.255 122.598c-2.272 2.721-4.482 5.502-6.614 8.339-1.764 2.345-1.297 5.675 1.048 7.439 2.355 1.763 5.679 1.289 7.439-1.053 2.028-2.692 4.124-5.333 6.282-7.919 1.883-2.251 1.577-5.6-.674-7.481-2.252-1.885-5.609-1.577-7.481.675z" style="fill: rgb(34, 75, 141);"/>
            <path d="m172.182 65.494c-3.263 1.429-6.474 2.941-9.644 4.534-2.62 1.318-3.678 4.511-2.36 7.133 1.321 2.623 4.509 3.672 7.133 2.36 3.004-1.51 6.049-2.944 9.136-4.301 2.687-1.178 3.912-4.311 2.734-6.998-1.178-2.679-4.317-3.911-6.999-2.728z" style="fill: rgb(34, 75, 141);"/>
            <path d="m70.015 162.561c-1.593 3.17-3.102 6.381-4.534 9.636-1.183 2.687.036 5.821 2.724 7.003 2.681 1.181 5.822-.038 6.998-2.724 1.359-3.089 2.796-6.14 4.306-9.143 1.318-2.622.259-5.815-2.36-7.133-2.636-1.317-5.816-.256-7.134 2.361z" style="fill: rgb(34, 75, 141);"/>
            <path d="m209.964 63.969c1.676-.397 3.362-.773 5.058-1.131 2.869-.604 4.71-3.421 4.103-6.293-.602-2.871-3.429-4.713-6.293-4.103-1.779.374-3.548.77-5.317 1.188-2.853.674-4.622 3.538-3.948 6.391.666 2.802 3.467 4.626 6.397 3.948z" style="fill: rgb(34, 75, 141);"/>
            <path d="m302.02 448.031c-1.665.397-3.346.773-5.032 1.126-2.874.602-4.716 3.416-4.114 6.288.603 2.885 3.422 4.706 6.282 4.114 1.79-.374 3.564-.77 5.333-1.193 2.853-.682 4.612-3.546 3.932-6.399-.679-2.857-3.537-4.6-6.401-3.936z" style="fill: rgb(34, 75, 141);"/>
            <path d="m436.792 335.546c-1.364 3.089-2.801 6.14-4.311 9.146-1.318 2.62-.259 5.813 2.36 7.133 2.62 1.31 5.811.266 7.133-2.36 1.593-3.162 3.102-6.373 4.539-9.628 1.183-2.682-.031-5.821-2.713-7.006-2.687-1.179-5.82.035-7.008 2.715z" style="fill: rgb(34, 75, 141);"/>
            <path d="m382.591 407.59c-2.583 2.161-5.224 4.254-7.916 6.277-2.345 1.764-2.812 5.094-1.048 7.439 1.758 2.34 5.082 2.818 7.439 1.053 2.838-2.137 5.623-4.345 8.342-6.62 2.251-1.883 2.547-5.234.664-7.483-1.868-2.245-5.22-2.544-7.481-.666z" style="fill: rgb(34, 75, 141);"/>
            <path d="m344.668 432.491c-3.009 1.51-6.054 2.944-9.146 4.303-2.687 1.18-3.906 4.316-2.724 7.001 1.172 2.674 4.303 3.913 6.998 2.726 3.258-1.432 6.469-2.944 9.634-4.531 2.625-1.318 3.683-4.508 2.366-7.13-1.307-2.623-4.508-3.674-7.128-2.369z" style="fill: rgb(34, 75, 141);"/>
            <path d="m413.852 374.695c-2.028 2.692-4.124 5.333-6.282 7.919-1.883 2.251-1.577 5.6.674 7.481 2.236 1.873 5.6 1.588 7.481-.674 2.272-2.721 4.482-5.502 6.614-8.339 1.764-2.345 1.297-5.675-1.048-7.439-2.355-1.762-5.681-1.29-7.439 1.052z" style="fill: rgb(34, 75, 141);"/>
            <path d="m449.159 296.986c-.358 1.691-.737 3.377-1.131 5.055-.669 2.856 1.1 5.714 3.953 6.389 2.837.664 5.715-1.082 6.391-3.956.415-1.761.814-3.535 1.183-5.315.602-2.871-1.24-5.686-4.109-6.288-2.904-.601-5.685 1.243-6.287 4.115z" style="fill: rgb(34, 75, 141);"/>
            <path d="m296.978 62.838c1.696.358 3.377.734 5.053 1.131 2.875.673 5.721-1.103 6.391-3.943.68-2.856-1.084-5.719-3.943-6.396-1.759-.418-3.533-.814-5.312-1.188-2.858-.61-5.691 1.232-6.293 4.103-.607 2.872 1.235 5.689 4.104 6.293z" style="fill: rgb(34, 75, 141);"/>
            <path d="m443.8 179.17c2.682-1.185 3.896-4.324 2.713-7.006-1.437-3.255-2.947-6.466-4.539-9.628-1.318-2.617-4.508-3.675-7.133-2.36-2.62 1.32-3.678 4.513-2.36 7.133 1.51 3.006 2.947 6.057 4.311 9.146 1.157 2.622 4.245 3.923 7.008 2.715z" style="fill: rgb(34, 75, 141);"/>
            <path d="m389.407 96.26c-2.718-2.275-5.504-4.482-8.342-6.62-2.355-1.766-5.675-1.289-7.439 1.053-1.764 2.345-1.297 5.675 1.048 7.439 2.692 2.023 5.333 4.116 7.916 6.277 2.259 1.888 5.609 1.575 7.481-.667 1.883-2.248 1.588-5.599-.664-7.482z" style="fill: rgb(34, 75, 141);"/>
            <path d="m344.668 79.509c2.628 1.314 5.822.248 7.128-2.368 1.318-2.622.259-5.813-2.366-7.131-3.165-1.587-6.376-3.1-9.634-4.531-2.698-1.185-5.821.044-6.998 2.726-1.183 2.685.036 5.821 2.724 7.001 3.092 1.359 6.138 2.793 9.146 4.303z" style="fill: rgb(34, 75, 141);"/>
            <path d="m421.291 138.358c2.345-1.764 2.812-5.094 1.048-7.439-2.132-2.838-4.342-5.618-6.614-8.339-1.868-2.251-5.229-2.56-7.481-.674-2.251 1.881-2.558 5.229-.674 7.481 2.158 2.586 4.254 5.227 6.282 7.919 1.758 2.339 5.082 2.817 7.439 1.052z" style="fill: rgb(34, 75, 141);"/>
            <path d="m455.442 219.128c2.874-.602 4.716-3.416 4.114-6.288-.368-1.782-.768-3.551-1.183-5.315-.674-2.856-3.548-4.622-6.391-3.956-2.853.674-4.622 3.533-3.953 6.389.394 1.676.773 3.362 1.131 5.055.603 2.887 3.421 4.708 6.282 4.115z" style="fill: rgb(34, 75, 141);"/>
            <path d="m56.553 292.872c-2.869.602-4.71 3.416-4.109 6.288.374 1.785.768 3.561 1.188 5.33.685 2.877 3.579 4.613 6.396 3.935 2.858-.68 4.617-3.546 3.937-6.399-.399-1.67-.773-3.354-1.126-5.04-.6-2.872-3.386-4.708-6.286-4.114z" style="fill: rgb(34, 75, 141);"/>
            <path d="m167.306 432.478c-2.635-1.323-5.815-.254-7.133 2.36-1.318 2.622-.259 5.815 2.36 7.133 3.17 1.593 6.381 3.105 9.644 4.534 2.655 1.178 5.807-.022 6.998-2.729 1.178-2.687-.047-5.821-2.734-6.998-3.086-1.356-6.132-2.79-9.135-4.3z" style="fill: rgb(34, 75, 141);"/>
            <path d="m90.688 373.624c-2.345 1.764-2.812 5.094-1.048 7.439 2.132 2.838 4.342 5.618 6.614 8.339 1.879 2.26 5.242 2.55 7.481.674 2.251-1.881 2.558-5.229.674-7.481-2.158-2.586-4.254-5.227-6.282-7.919-1.758-2.342-5.083-2.811-7.439-1.052z" style="fill: rgb(34, 75, 141);"/>
            <path d="m68.205 332.799c-2.687 1.183-3.906 4.316-2.724 7.003 1.432 3.255 2.941 6.466 4.534 9.636 1.321 2.623 4.509 3.672 7.133 2.36 2.62-1.318 3.678-4.511 2.36-7.133-1.51-3.004-2.947-6.054-4.306-9.143-1.171-2.679-4.3-3.914-6.997-2.723z" style="fill: rgb(34, 75, 141);"/>
            <path d="m129.394 407.572c-2.257-1.886-5.608-1.58-7.481.667-1.883 2.249-1.587 5.6.664 7.483 2.724 2.277 5.504 4.485 8.347 6.622 2.335 1.751 5.672 1.298 7.439-1.058 1.759-2.347 1.287-5.675-1.058-7.439-2.698-2.024-5.333-4.117-7.911-6.275z" style="fill: rgb(34, 75, 141);"/>
            <path d="m215.012 449.157c-1.686-.353-3.367-.729-5.042-1.126-2.838-.664-5.717 1.079-6.396 3.937-.68 2.853 1.084 5.719 3.937 6.396 1.769.423 3.543.82 5.333 1.193 2.865.593 5.68-1.233 6.282-4.114.602-2.87-1.24-5.684-4.114-6.286z" style="fill: rgb(34, 75, 141);"/>
            <path d="m320.182 238.414 24.818-35.855h5.291c2.936 0 5.312-2.379 5.312-5.312s-2.376-5.312-5.312-5.312h-8.077c-1.743 0-3.377.856-4.368 2.288l-25.316 36.576-4.889 1.386c-4.053-4.603-8.675-8.683-13.809-12.073.783-3.061 1.21-6.244 1.21-9.532 0-7.461-2.156-14.712-6.092-20.934 9.872-9.136 15.653-22.137 15.653-35.747 0-2.934-2.376-5.312-5.312-5.312s-5.312 2.379-5.312 5.312c0 10.49-4.379 20.526-11.891 27.648-7.164-6.427-16.406-10.064-26.089-10.064-9.674 0-18.912 3.635-26.09 10.068-7.513-7.122-11.894-17.16-11.894-27.652 0-2.934-2.376-5.312-5.312-5.312s-5.312 2.379-5.312 5.312c0 13.611 5.782 26.612 15.654 35.748-3.934 6.22-6.093 13.473-6.093 20.933 0 3.283.428 6.467 1.212 9.534-5.132 3.39-9.753 7.469-13.805 12.071l-4.889-1.386-25.321-36.576c-.991-1.432-2.625-2.288-4.368-2.288h-8.072c-2.936 0-5.312 2.379-5.312 5.312s2.376 5.312 5.312 5.312h5.286l24.823 35.855c.7 1.012 1.733 1.751 2.921 2.085l2.838.804c-5.711 9.154-9.335 19.714-10.205 31.059h-25.663c-2.936 0-5.312 2.379-5.312 5.312s2.376 5.312 5.312 5.312h25.674c.864 11.064 4.404 21.695 10.212 31.042l-2.877.826c-1.178.337-2.2 1.074-2.9 2.08l-24.823 35.852h-5.286c-2.936 0-5.312 2.379-5.312 5.312s2.376 5.312 5.312 5.312h8.072c1.743 0 3.377-.856 4.368-2.288l25.326-36.581 4.81-1.383c1.668 1.901 3.432 3.729 5.317 5.45 2.161 1.974 5.519 1.826 7.501-.342s1.826-5.528-.342-7.507c-12.098-11.039-19.034-26.745-19.034-43.087 0-32.161 26.141-58.328 58.274-58.328s58.274 26.167 58.274 58.328c0 16.344-6.941 32.047-19.039 43.087-2.168 1.977-2.324 5.338-.342 7.504 1.982 2.171 5.343 2.322 7.501.345 1.886-1.721 3.651-3.549 5.32-5.45l4.812 1.383 25.321 36.581c.991 1.432 2.625 2.288 4.368 2.288h8.077c2.936 0 5.312-2.379 5.312-5.312s-2.376-5.312-5.312-5.312h-5.293l-24.818-35.852c-.7-1.006-1.722-1.743-2.9-2.08l-2.878-.826c5.809-9.346 9.349-19.978 10.213-31.042h25.674c2.936 0 5.312-2.379 5.312-5.312s-2.376-5.312-5.312-5.312h-25.663c-.871-11.345-4.494-21.905-10.205-31.059l2.838-.804c1.189-.334 2.221-1.074 2.921-2.085zm-92.228-23.66c-.205-1.377-.378-2.767-.378-4.175 0-16.114 13.121-28.473 28.423-28.473 15.425 0 28.418 12.465 28.418 28.473 0 1.431-.17 2.809-.372 4.175-8.579-3.846-18.055-6.033-28.046-6.033-9.991.001-19.466 2.187-28.045 6.033z" style="fill: rgb(155, 121, 0);"/>
            <path d="m232.686 342.469c7.032 2.612 15.173 4.114 23.314 4.114 2.936 0 5.312-2.379 5.312-5.312v-36.737c0-2.934-2.376-5.312-5.312-5.312s-5.312 2.379-5.312 5.312v31.062c-5.014-.465-9.844-1.431-14.297-3.087-2.755-1.017-5.81.379-6.832 3.131-1.023 2.749.378 5.807 3.127 6.829z" style="fill: rgb(155, 121, 0);"/>
            <path d="m282.156 80.754v-53.584c0-14.422-11.735-26.156-26.156-26.156s-26.156 11.735-26.156 26.156v53.584c0 14.424 11.735 26.159 26.156 26.159s26.156-11.735 26.156-26.159zm-41.688 0v-53.584c0-8.565 6.967-15.532 15.532-15.532s15.532 6.967 15.532 15.532v53.584c0 8.565-6.967 15.535-15.532 15.535s-15.532-6.97-15.532-15.535z" style="fill: rgb(155, 121, 0);"/>
            <path d="m256 510.987c14.422 0 26.156-11.735 26.156-26.159v-53.584c0-14.422-11.735-26.156-26.156-26.156s-26.156 11.735-26.156 26.156v53.584c0 14.424 11.734 26.159 26.156 26.159zm-15.532-79.743c0-8.565 6.967-15.532 15.532-15.532s15.532 6.967 15.532 15.532v53.584c0 8.565-6.967 15.535-15.532 15.535s-15.532-6.97-15.532-15.535z" style="fill: rgb(155, 121, 0);"/>
            <path d="m431.246 229.841c-14.427 0-26.162 11.735-26.162 26.159 0 14.422 11.735 26.156 26.162 26.156h53.584c14.422 0 26.156-11.735 26.156-26.156 0-14.424-11.735-26.159-26.156-26.159zm69.116 26.159c0 8.565-6.967 15.532-15.532 15.532h-53.584c-8.565 0-15.537-6.967-15.537-15.532s6.972-15.535 15.537-15.535h53.584c8.565 0 15.532 6.97 15.532 15.535z" style="fill: rgb(155, 121, 0);"/>
            <path d="m27.17 282.156h53.584c14.422 0 26.156-11.735 26.156-26.156 0-14.424-11.735-26.159-26.156-26.159h-53.584c-14.422 0-26.156 11.735-26.156 26.159-.001 14.422 11.734 26.156 26.156 26.156zm0-41.691h53.584c8.565 0 15.532 6.97 15.532 15.535s-6.967 15.532-15.532 15.532h-53.584c-8.565 0-15.532-6.967-15.532-15.532s6.967-15.535 15.532-15.535z" style="fill: rgb(155, 121, 0);"/>
          </g>
        </g>
      </g>
    </g>
  </g>
</svg>