<?xml version="1.0" encoding="utf-8"?>
<svg height="800px" width="800px" version="1.1" id="Layer_1" viewBox="0 0 504 504" xmlns="http://www.w3.org/2000/svg">
  <circle style="fill: rgb(222, 222, 222);" cx="252" cy="252" r="252"/>
  <path style="fill: rgb(54, 126, 203);" d="M336.1,306.4l-39.6-39.6c29.1-43,24.7-101.9-13.4-139.9c-43.1-43.1-113-43.1-156.2,0 c-43.1,43.1-43.1,113,0,156.2c38.1,38.1,97,42.5,139.9,13.4l39.6,39.6L336.1,306.4z"/>
  <circle style="fill:#FFFFFF;" cx="204.9" cy="204.9" r="84"/>
  <path style="fill: rgb(34, 75, 141);" d="M334.4,290.1l-44.3,44.3l82.5,82.5c3.1,3.1,8.1,3.1,11.2,0l33-33c3.1-3.1,3.1-8.1,0-11.2L334.4,290.1 z"/>
  <g id="_x31_0_Bug" transform="matrix(0.486686, 0, 0, 0.462145, 79.228043, 82.297585)" style="">
    <g>
      <circle cx="255.999" cy="210.566" r="33.755" style="fill: rgb(254, 197, 0);" transform="matrix(1.014234, 0, 0, 1, -4.549257, 0)"/>
      <circle cx="255.999" cy="280.298" r="63.613" style="fill: rgb(46, 155, 223);" transform="matrix(1.014234, 0, 0, 1, -4.549257, 0)"/>
      <path d="M 319.586 277.673 C 319.586 312.787 290.707 341.26 255.093 341.26 C 250.729 341.26 246.473 340.835 242.378 340.038 C 271.904 334.194 294.155 308.483 294.155 277.672 C 294.155 246.861 271.904 221.097 242.378 215.253 C 246.472 214.456 250.729 214.031 255.093 214.031 C 290.707 214.033 319.586 242.559 319.586 277.673 Z" opacity=".18" style="fill: rgb(54, 126, 203);"/>
      <g fill="#2b3c65">
        <path d="m320.182 238.414 24.818-35.855h5.291c2.936 0 5.312-2.379 5.312-5.312s-2.376-5.312-5.312-5.312h-8.077c-1.743 0-3.377.856-4.368 2.288l-25.316 36.576-4.889 1.386c-4.053-4.603-8.675-8.683-13.809-12.073.783-3.061 1.21-6.244 1.21-9.532 0-7.461-2.156-14.712-6.092-20.934 9.872-9.136 15.653-22.137 15.653-35.747 0-2.934-2.376-5.312-5.312-5.312s-5.312 2.379-5.312 5.312c0 10.49-4.379 20.526-11.891 27.648-7.164-6.427-16.406-10.064-26.089-10.064-9.674 0-18.912 3.635-26.09 10.068-7.513-7.122-11.894-17.16-11.894-27.652 0-2.934-2.376-5.312-5.312-5.312s-5.312 2.379-5.312 5.312c0 13.611 5.782 26.612 15.654 35.748-3.934 6.22-6.093 13.473-6.093 20.933 0 3.283.428 6.467 1.212 9.534-5.132 3.39-9.753 7.469-13.805 12.071l-4.889-1.386-25.321-36.576c-.991-1.432-2.625-2.288-4.368-2.288h-8.072c-2.936 0-5.312 2.379-5.312 5.312s2.376 5.312 5.312 5.312h5.286l24.823 35.855c.7 1.012 1.733 1.751 2.921 2.085l2.838.804c-5.711 9.154-9.335 19.714-10.205 31.059h-25.663c-2.936 0-5.312 2.379-5.312 5.312s2.376 5.312 5.312 5.312h25.674c.864 11.064 4.404 21.695 10.212 31.042l-2.877.826c-1.178.337-2.2 1.074-2.9 2.08l-24.823 35.852h-5.286c-2.936 0-5.312 2.379-5.312 5.312s2.376 5.312 5.312 5.312h8.072c1.743 0 3.377-.856 4.368-2.288l25.326-36.581 4.81-1.383c1.668 1.901 3.432 3.729 5.317 5.45 2.161 1.974 5.519 1.826 7.501-.342s1.826-5.528-.342-7.507c-12.098-11.039-19.034-26.745-19.034-43.087 0-32.161 26.141-58.328 58.274-58.328s58.274 26.167 58.274 58.328c0 16.344-6.941 32.047-19.039 43.087-2.168 1.977-2.324 5.338-.342 7.504 1.982 2.171 5.343 2.322 7.501.345 1.886-1.721 3.651-3.549 5.32-5.45l4.812 1.383 25.321 36.581c.991 1.432 2.625 2.288 4.368 2.288h8.077c2.936 0 5.312-2.379 5.312-5.312s-2.376-5.312-5.312-5.312h-5.293l-24.818-35.852c-.7-1.006-1.722-1.743-2.9-2.08l-2.878-.826c5.809-9.346 9.349-19.978 10.213-31.042h25.674c2.936 0 5.312-2.379 5.312-5.312s-2.376-5.312-5.312-5.312h-25.663c-.871-11.345-4.494-21.905-10.205-31.059l2.838-.804c1.189-.334 2.221-1.074 2.921-2.085zm-92.228-23.66c-.205-1.377-.378-2.767-.378-4.175 0-16.114 13.121-28.473 28.423-28.473 15.425 0 28.418 12.465 28.418 28.473 0 1.431-.17 2.809-.372 4.175-8.579-3.846-18.055-6.033-28.046-6.033-9.991.001-19.466 2.187-28.045 6.033z" style="fill: rgb(34, 75, 141);"/>
        <path d="m232.686 342.469c7.032 2.612 15.173 4.114 23.314 4.114 2.936 0 5.312-2.379 5.312-5.312v-36.737c0-2.934-2.376-5.312-5.312-5.312s-5.312 2.379-5.312 5.312v31.062c-5.014-.465-9.844-1.431-14.297-3.087-2.755-1.017-5.81.379-6.832 3.131-1.023 2.749.378 5.807 3.127 6.829z" style="fill: rgb(34, 75, 141);"/>
      </g>
    </g>
  </g>
</svg>